<?xml version="1.0" encoding="UTF-8" standalone="no"?>
<svg viewBox="0 0 118.74558 102.314" xmlns="http://www.w3.org/2000/svg">
<g transform="translate(-86.7301,-1050.0002)">
<path d="m153.087,1066.1635c-.7761.3663-1.5706.7787-2.3659,1.237-3.986,2.2973-5.3445,6.1145-5.7489,7.6671-.7922-.1281-1.5204-.052-2.1625.2533-.6728.3197-1.2105.8696-1.6186,1.6157-1.5581-.685-5.2749-1.903-9.4348-.316-.8577.3272-1.6789.6832-2.4532,1.0533-4.1814,1.9985-7.0109,4.3675-7.0109,4.3675s-22.7562,15.5152-30.3785,20.4395c-1.2264.7923-1.4853,1.1298-2.3482,1.4447-.8978.3276-2.8353.4199-2.8353.4199s1.9798.5328 2.9766.427c.4804-.051.6124,0 1.1748-.2567 0,0 1.4578,4.8625 2.5934,7.1246 1.7073,3.4005 6.2781,9.534 6.2781,9.534s-3.643-6.4322-4.9799-9.8628c-.9522-2.4432-2.2446-7.5559-2.2446-7.5559s25.0003-17.3014 34.3415-22.7596c7.4763-4.3687 11.9997-2.3938 13.5082-1.4307-.1492.9976-.1883,2.1358-.1259,3.3828-1.4484.3241-5.8316,1.4805-7.554,3.9637-2.0765,2.9938-2.1338,3.6392-2.1338,3.6392s.1691-.4103 2.2455-3.4041c1.6819-2.4248 5.9088-3.5886 7.4554-3.9439 .008.1284.0168.2574.0268.388-.9093.338-3.0445,1.1639-3.9168,1.8299-1.1873.9066-2.8649,3.4463-2.8649,3.4463s1.7931-2.3571 2.9766-3.2112c.8461-.6106 2.854-1.417 3.8268-1.7917 .0122.1412.0259.283.0406.4265-.9475.3835-3.8441,1.6525-5.4332,3.4331-1.914,2.1447-2.761,7.0757-2.761,7.0757s.9588-4.6959 2.8728-6.8406c1.5463-1.7327 4.3273-2.9785 5.3506-3.3984 .0117.1057.0207.2104.0337.3172-.8591.4706-2.7679,1.5634-3.4704,2.3428-1.3071,1.4501-2.806,5.1428-2.806,5.1428s1.618-3.5182 2.9177-4.9078c.6906-.7382 2.5022-1.794 3.3985-2.295 .0351.2668.0718.5359.1148.81-.7537.2804-2.4071.9396-2.9538,1.5253-1.6245,1.7405-2.2795,4.8999-2.7603,6.5846 .4808-1.6847 1.2629-4.6729 2.872-6.3495 .5348-.5572 2.1004-1.1986 2.886-1.4976 .0489.2977.1021.6001.1602.9055-.6439.2184-1.8146.6539-2.1839,1.0514-.9469,1.0194-1.4282,3.9207-1.4282,3.9207s.611-2.7311 1.5399-3.6856c.3659-.376 1.4671-.7975 2.1198-1.0254 .009.042.02.084.0283.1261-.5476.1732-1.3168.448-1.5729.698-.6906.6739-1.0942,2.6813-1.0942,2.6813s.5335-1.8349 1.2059-2.4463c.2547-.2316.9745-.4934 1.5142-.67 .7956,3.8373 2.2771,8.2211 4.4013,12.6908 4.7083,9.9069 11.0785,17.1003 15.5347,18.0306 .3086.5234 4.1112,7.0164 4.7686,10.0622 .6849,3.1736 2.0868,7.1084 2.4458,10.7743 .1745,1.7815-.1492,5.3707-.1492,5.3707s.7504-2.5497.8831-3.8644c.1301-1.2895.0319-3.0437-.0914-3.8873-.3658-2.5022 1.329,6.0751 2.5412,8.9188 .9729,2.2826 2.896,5.3593 3.7534,6.4293 0,0-1.9382-4.3722-2.6868-6.6389-1.9502-5.9049-4.6501-18.0748-4.6501-18.0748s7.7349,9.777 11.0818,15.0181c1.2848,2.012 3.4508,6.2759 3.4508,6.2759-.2882-1.3405-1.4594-4.7747-2.6147-6.9704-1.4395-2.7358-7.0198-9.4664-5.3107-7.6027 .5762.6283 1.8744,1.8124 2.9565,2.5258 1.1031.7274 3.554,1.7557 3.554,1.7557s-2.9874-2.0157-4.2585-3.276c-2.6157-2.5934-4.7813-6.1652-6.8095-8.7005-1.9497-2.4371-4.5852-9.5078-4.7895-10.0568 2.0876-4.0474.5332-13.5257-4.172-23.4262-2.1243-4.4699-4.5874-8.3872-7.0606-11.4269 .4913-.3144 1.1855-.7251 1.5309-.7771 .8987-.1353 2.6546.6116 2.6546.6116s-1.8075-.9566-2.7663-.8467c-.3609.041-1.0952.4863-1.5879.8087l-.0835-.1c.5972-.3665 1.658-.979 2.1871-1.0259 1.3267-.1174 3.8339,1.1318 3.8339,1.1318s-2.5572-1.4573-3.9456-1.3668c-.5461.036-1.6598.6922-2.2445,1.0566-.2014-.2393-.4016-.4724-.6027-.6997 .735-.4237 2.2608-1.2532 3.0351-1.3163 2.3162-.1889 5.1307,1.09 6.7405,1.7811-1.6099-.6911-4.4768-2.1767-6.8523-2.0162-.8086.055-2.4074.9451-3.0995,1.3515-.1846-.2055-.3716-.4057-.5555-.6005 .9611-.3826 2.9638-1.1407 3.9771-1.2102 1.8982-.1303 5.6479.8369 5.6479.8369s-3.8098-1.1697-5.7597-1.072c-1.0577.053-3.1546.8664-4.0595,1.2358l-.2247-.2264c.9708-.5279 3.7351-1.9218 6.0654-2.0271 2.8715-.1297 7.1182,2.0925 7.1182,2.0925s-4.3583-2.4572-7.2299-2.3276c-2.394.1081-5.2514,1.578-6.1445,2.0692l-.305-.3008c.9105-.5201 2.8438-1.5882 3.8573-1.8602 1.4096-.3783 4.3696-.2801 4.3696-.2801s-3.0287-.3031-4.4814.045c-1.0767.258-3.1107,1.4166-3.9437,1.9058-.0946-.09-.188-.1755-.2822-.2621 1.2518-.9729 4.8679-3.5479 7.8194-3.32 3.6326.2806 4.0538.4104 4.0538.4104s-.533-.3649-4.1656-.6455c-3.0239-.2335-6.737,2.4666-7.8989,3.3803-.9601-.865-1.8987-1.5698-2.7942-2.0897 .16-1.6733 1.3515-6.5786 9.6513-9.6884 10.1311-3.7959 39.3321-12.249 39.3321-12.249s3.148,4.2308 4.4412,6.5121c1.8157,3.203 4.5043,10.0842 4.5043,10.0842s-1.8692-7.4174-3.4277-10.8886c-1.0367-2.3091-3.8864-6.5101-3.8864-6.5101 .5508-.2767.598-.4085.9409-.7488 .7116-.7061 1.5504-2.574 1.5504-2.574s-1.3005,1.4422-2.1215,1.9313c-.7892.4703-1.2107.4562-2.5994.9067-8.6317,2.8004-35.0307,10.6506-35.0307,10.6506s-3.6254.6943-7.8156,2.6742z"/>
</g>
</svg>
